Love for All and Sharing is the first step to solving all the problems of humanity.

Websites I want to share.

     
http://www.shareintl.org/

     
http://www.lightmiddleway.com


Thank you very much

No credit for me...credit to EVERYONE for sharing

 
http://thepiratebay.org/user/raymondhome/

PLOT
A group of elite warriors are hunted by members of a merciless alien race known as Predators.

IMDb RATING: 7.5/10 (4,698 votes)

Language:English
Video source:RELiZLAB:Thanks
Audio source:IMAGINE:Thanks
Encoder: Tony2
............................................
Duration : 1h 41mn
Overall bit rate : 1 640 Kbps
.............................................
Video
ID : 0
Format : MPEG-4 Visual
Format profile : Simple@L3
Format settings, BVOP : Yes
Format settings, QPel : No
Format settings, GMC : No warppoints
Format settings, Matrix : Default (H.263)
Codec ID : XVID
Codec ID/Hint : XviD
Duration : 1h 41mn
Bit rate : 1 500 Kbps
Width : 720 pixels
Height : 304 pixels
Display aspect ratio : 2.35:1
Frame rate : 25.000 fps
Resolution : 24 bits
Scan type : Progressive
Bits/(Pixel*Frame) : 0.274
Stream size : 1.06 GiB (91%)
..............................................
Audio
ID : 1
Format : MPEG Audio
Format version : Version 1
Format profile : Layer 3
Codec ID : 55
Codec ID/Hint : MP3
Duration : 1h 41mn
Bit rate mode : Constant
Bit rate : 128 Kbps
Channel(s) : 2 channels
Sampling rate : 44.1 KHz
Resolution : 16 bits
Stream size : 92.6 MiB (8%)
Alignment : Aligned on interleaves
Interleave, duration : 26 ms (0.65 video frame)
Writing library : LAME3.97

credit FEEL-FREE & pitic BIG BIG BIG TIME & to all the people who made it possible for us to share this...especially EVERYONE involve in the production of the movie...IF YOU LIKE IT...BUY IT :)

*****help what we can with others in need...the world is ONE big family*****